<?xml version="1.0" encoding="UTF-8"?><svg id="a" xmlns="http://www.w3.org/2000/svg" viewBox="0 0 1449.32 1673.54"><defs><style>.b{fill:#fff;}</style></defs><polygon class="b" points="1449.32 418.38 1449.32 697.31 1207.77 836.76 966.22 976.22 966.21 976.23 724.66 1115.69 483.1 976.23 483.1 697.31 724.66 836.77 966.22 697.31 1207.76 557.85 966.22 418.39 966.21 418.39 724.66 278.93 483.1 418.39 241.55 557.85 241.55 1115.69 483.1 1255.15 724.66 1394.61 966.21 1255.15 966.22 1255.15 1207.76 1115.69 1207.77 1115.69 1449.32 976.23 1449.32 1255.16 1207.77 1394.61 966.22 1534.08 724.66 1673.54 724.66 1673.54 483.1 1534.08 483.1 1534.07 0 1255.15 0 418.39 241.55 278.93 483.1 139.47 483.1 139.46 724.66 0 724.66 0 966.22 139.46 1207.77 278.92 1207.77 278.93 1449.32 418.38"/></svg>