<?xml version="1.0" encoding="UTF-8"?><svg id="a" xmlns="http://www.w3.org/2000/svg" viewBox="0 0 9483.61 3585.53"><defs><style>.b{fill:#00804e;}.c{fill:#6c757d;}</style></defs><polygon class="b" points="3105.14 896.37 3105.14 1493.96 2587.62 1792.75 2070.1 2091.54 2070.08 2091.56 1552.56 2390.35 1035.04 2091.56 1035.04 1493.96 1552.56 1792.77 2070.1 1493.96 2587.6 1195.18 2070.1 896.39 2070.08 896.39 1552.56 597.6 1035.04 896.39 517.52 1195.18 517.52 2390.35 1035.04 2689.14 1552.56 2987.93 2070.08 2689.14 2070.1 2689.14 2587.6 2390.35 2587.62 2390.35 3105.14 2091.56 3105.14 2689.16 2587.62 2987.93 2070.1 3286.74 1552.58 3585.53 1552.56 3585.53 1035.04 3286.74 1035.04 3286.72 0 2689.14 0 896.39 517.52 597.6 1035.04 298.81 1035.04 298.79 1552.56 0 1552.58 0 2070.1 298.79 2587.62 597.58 2587.62 597.6 3105.14 896.37"/><g><path class="c" d="M3899.19,2065.5c22.11,377.86,555.79,348.32,803.8,252.2l49.25,223.44c-116.24,48.11-273.25,85.84-476.24,85.84-928.01,27.54-906.57-1294.09-32.81-1306.34,502.64,4.57,624.21,443.22,571.56,744.87h-915.57Zm617.08-227.8c-1.37-398.96-564.67-400.03-618.14,0h618.14Z"/><path class="c" d="M6271.61,706.16c.67,640.24-6.17,1280.57,0,1920.81h-331.64v-207.67c-28.05,32.2-182.46,203.17-427.31,207.67-301.51,7.9-591.78-255.64-584.91-635.22-2.56-410.58,282.35-671.11,614.49-671.11,193.15,0,331.64,77.32,392.62,171.23h5.11V706.16h331.64Zm-331.64,1178.02c0-25.62-2.2-58.2-8.06-83.81-33.33-128.38-149.68-231.9-311.43-231.9-224.58,0-357.86,173.01-357.86,406.49s129.1,391.11,355.3,391.11c154.39,0,281.76-108.29,312.53-247.34,15.29-57.62,7.88-173.5,9.52-234.54Z"/><path class="c" d="M6595.05,2626.98c.16-352.45,.31-704.9,.47-1057.35h-170.67v-246.73h170.67c-7.12-180.16,36.59-381.47,161.42-493.68,149.45-138.83,385.34-145.77,548.85-91.59l-17.63,251.45c-220.66-73.17-368.91,15.06-366.5,269.54v64.28h289.27v246.73h-286.36c.26,352.45,.53,704.9,.79,1057.35h-330.31Z"/><path class="c" d="M7380.26,2627.01c.15-352.45,.29-704.9,.44-1057.35h-170.67v-246.73h170.67c-7.12-180.16,36.59-381.47,161.42-493.68,149.44-138.83,385.33-145.77,548.85-91.59l-17.63,251.45c-220.66-73.17-368.91,15.06-366.5,269.54v64.28h289.27v246.73h-286.36c-.15,352.45-.31,704.9-.46,1057.35h-329.03Z"/><path class="c" d="M8492.24,1320.65c65.18,176.3,287.94,737.6,331.53,908.9h8.02c44.39-167.68,235.41-733.28,293.61-908.9h358.2l-338.68,836.51c-205.16,529.88-331.14,715.85-480.26,830.57-132.5,104.38-266.41,139.79-354.57,147.81l-65.25-275.13c51.19-9.16,119.22-31.87,185.74-72.17,63.94-34.78,144-110.87,194.52-206.18,29.51-49.84,27.13-60.08,1.82-120.86l-500.18-1140.56h365.49Z"/></g></svg>